<svg  xmlns="http://www.w3.org/2000/svg">

<!-- copyright-icon  -->
    <symbol  viewBox="0 0 40 40" id="copyright-icon" xmlns="http://www.w3.org/2000/svg">
      <path
        d="M14.1506 0.25H14.0502L0.5 1.58944V25.221L14.0502 32.875L27.5 25.221V1.58944L14.1506 0.25ZM25.5929 11.8266L14.0502 5.32075V5.22507H13.9498L13.8494 5.1294V5.22507L2.40706 11.8266V3.21591L13.9498 2.06782L25.5929 3.21591V11.8266ZM13.9498 6.75587L25.4926 13.1661L20.9758 15.6536L13.8494 11.6353V12.9747L19.7714 16.3233L18.868 16.8017L13.8494 13.9315V15.2709L17.6636 17.4714L16.8606 17.9498L13.8494 16.2276V17.5671L15.7565 18.6195L13.9498 19.6719L2.50743 13.2617L13.9498 6.75587ZM2.40706 14.6968L13.8494 21.2027V22.1595L5.92007 17.6628V19.0022L13.9498 23.5946V24.647L5.92007 20.1503V21.4897L13.9498 26.0821L22.0799 21.3941V16.419L25.4926 14.5055V24.0729L13.9498 30.6745L2.40706 24.1686V14.6968Z"/>
    </symbol>

<!-- house-icon -->
    <symbol viewBox="0 0 75 72"  id="house-icon">
<path d="M29.6185 64.9389H45.6827V41.1709H29.6185V64.9389ZM42.7711 62.0549H32.5301V44.0549H42.6707V62.0549H42.7711Z"/>
<path d="M72.8916 39.1823L75 37.0939L65.0602 27.2486V0.39779H51.2048V13.5249L37.4498 0L0 37.1934L2.10843 39.2818L9.93976 31.5249V69.116H6.0241V72H70.1807V69.116H65.0602V31.4254L72.8916 39.1823ZM54.1165 3.38122H62.0482V24.3646L54.1165 16.5083V3.38122ZM62.1486 69.0166H12.9518V28.5414L37.4498 4.1768L62.0482 28.5414V69.0166H62.1486Z"/>
<path d="M29.9197 27.0491C29.9197 31.3253 33.4338 34.806 37.6507 34.806C41.9679 34.806 45.482 31.3253 45.482 27.0491C45.482 22.7728 41.9679 19.3916 37.6507 19.3916C33.3334 19.3916 29.9197 22.7728 29.9197 27.0491ZM37.6507 22.0767C40.3615 22.0767 42.6707 24.2645 42.6707 27.0491C42.6707 29.7341 40.4619 32.0214 37.6507 32.0214C34.9398 32.0214 32.6306 29.8336 32.6306 27.0491C32.6306 24.364 34.9398 22.0767 37.6507 22.0767Z" />
<path d="M19.9799 41.1709H16.9679V45.0493H19.9799V41.1709Z" />
<path d="M25.9036 41.1709H22.8915V45.0493H25.9036V41.1709Z" />
<path d="M19.9799 47.1387H16.9679V51.0171H19.9799V47.1387Z" />
<path d="M25.9036 47.1387H22.8915V51.0171H25.9036V47.1387Z" />
<path d="M52.008 41.1709H48.996V45.0493H52.008V41.1709Z" />
<path d="M58.0321 41.1709H55.0201V45.0493H58.0321V41.1709Z" />
<path d="M52.008 47.1387H48.996V51.0171H52.008V47.1387Z" />
<path d="M58.0321 47.1387H55.0201V51.0171H58.0321V47.1387Z"/>

<!--- burger-icon  -->
<symbol viewBox="0 0 76 69"  id="burger-icon">
<path d="M71.7113 45.8324H4.28871C1.89501 45.8324 0 47.8034 0 50.07V53.5192C0 55.7858 1.89501 57.6582 4.28871 57.6582H5.28609V58.6437C5.28609 64.0639 9.77428 68.4 15.1601 68.4H60.8399C66.3255 68.4 70.7139 63.9653 70.7139 58.6437V57.6582H71.7113C74.0053 57.6582 76 55.7858 76 53.4206V49.9714C76 47.8034 74.105 45.8324 71.7113 45.8324ZM67.8215 58.6437C67.8215 62.3886 64.7297 65.4436 60.9396 65.4436H15.0604C11.2703 65.4436 8.17848 62.3886 8.17848 58.6437V57.6582H67.8215V58.6437ZM73.0079 53.4206C73.0079 54.1105 72.4095 54.7018 71.7113 54.7018H4.28871C3.59055 54.7018 2.99213 54.1105 2.99213 53.4206V49.9714C2.99213 49.3801 3.59055 48.7889 4.28871 48.7889H71.811C72.5092 48.7889 73.1076 49.3801 73.1076 50.07V53.4206H73.0079Z" />
<path d="M16.1575 37.8496L21.5434 41.7915L27.0289 37.8496L32.5145 41.7915L38 37.8496L43.3859 41.7915L48.8714 37.8496L54.357 41.7915L59.8426 37.8496L65.3281 41.7915L71.6116 37.1597L69.9161 34.7946L65.3281 38.0467L59.8426 34.1047L54.357 38.0467L48.8714 34.1047L43.3859 38.0467L38 34.1047L32.5145 38.0467L27.0289 34.1047L21.5434 38.0467L16.1575 34.1047L10.672 38.0467L6.08403 34.7946L4.28876 37.1597L10.672 41.7915L16.1575 37.8496Z" />
<path d="M70.7138 31.1486C70.7138 30.5573 70.8136 28.5864 70.7138 28.1922C70.0157 12.8186 55.6535 0.5 37.9999 0.5C20.3464 0.5 5.88444 12.8186 5.18628 28.1922C5.18628 28.5864 5.18628 30.5573 5.18628 31.1486H70.7138ZM37.9999 3.45646C53.9579 3.45646 67.1233 14.4939 67.7217 28.1922H8.17841C8.87657 14.4939 22.0419 3.45646 37.9999 3.45646Z" />
<path d="M38 17.2532C39.1017 17.2532 39.9948 16.3708 39.9948 15.2823C39.9948 14.1937 39.1017 13.3113 38 13.3113C36.8983 13.3113 36.0052 14.1937 36.0052 15.2823C36.0052 16.3708 36.8983 17.2532 38 17.2532Z" />
<path d="M30.021 12.424C31.1227 12.424 32.0157 11.5416 32.0157 10.453C32.0157 9.36449 31.1227 8.48206 30.021 8.48206C28.9193 8.48206 28.0262 9.36449 28.0262 10.453C28.0262 11.5416 28.9193 12.424 30.021 12.424Z" />
<path d="M45.979 12.424C47.0807 12.424 47.9738 11.5416 47.9738 10.453C47.9738 9.36449 47.0807 8.48206 45.979 8.48206C44.8773 8.48206 43.9843 9.36449 43.9843 10.453C43.9843 11.5416 44.8773 12.424 45.979 12.424Z" />
</symbol>

<!-- gift-item  -->
<symbol viewBox="0 0 64 76"  id="gift-icon" >
<path d="M61.1556 22.6167H61.054H36.3683C50.1841 15.8189 51.3016 11.5202 50.7937 9.12098C49.6762 5.22221 45.1048 2.22316 40.8381 3.82266C35.2508 5.92199 33.727 14.1194 32.2032 20.0175C30.273 14.0194 28.4444 6.42183 24.0762 2.52307C22.8571 1.42341 21.0286 0.323761 18.2857 0.523698C14.2222 0.923572 8.43175 5.82202 10.8698 11.3203C13.1048 16.6186 20.5206 20.0175 25.4984 22.7167H2.84444C1.21905 22.7167 0 24.0163 0 25.5158V36.7123C0 38.3118 1.32063 39.5114 2.84444 39.5114H3.14921V75.5H61.054V39.5114H61.1556C62.781 39.5114 64 38.2118 64 36.7123V25.5158C64 23.9163 62.6794 22.6167 61.1556 22.6167ZM42.4635 6.32187C44.5968 6.02196 47.4413 7.62146 47.746 9.52085C48.1524 12.22 44.3937 14.7192 42.6667 15.8189C40.127 17.5183 37.6889 18.418 35.3524 19.8176C36.1651 16.1188 37.8921 6.92168 42.4635 6.32187ZM19.5048 16.1188C17.2698 14.6192 13.0032 11.7202 13.1048 8.4212C13.2063 4.82234 18.8952 1.92326 21.9429 4.6224C25.8032 7.92136 27.6317 15.6189 29.054 21.0172C25.8032 19.4177 22.7556 18.2181 19.5048 16.1188ZM25.4984 72.5009H6.09524V39.5114H25.4984V72.5009ZM25.4984 36.5123H3.04762V25.6158H25.4984V36.5123ZM35.6571 72.5009H28.4444V25.6158H35.6571V72.5009ZM58.0064 72.5009H38.7048V39.5114H58.1079V72.5009H58.0064ZM60.9524 36.5123H38.7048V25.6158H60.9524V36.5123Z"/>
</symbol>

  </svg>
